<svg
        width='30'
        height='30'
        viewBox="0 0 24 30"
        fill="none"
        xmlns="http://www.w3.org/2000/svg"
      >
        <g id="Group 164">
          <path
            id="Vector"
            d="M9.5 0C4.24786 0 0 4.60185 0 10.2917C0 18.0104 9.5 29.4048 9.5 29.4048C9.5 29.4048 19 18.0104 19 10.2917C19 4.60185 14.7521 0 9.5 0ZM2.71429 10.2917C2.71429 6.23381 5.75429 2.94048 9.5 2.94048C13.2457 2.94048 16.2857 6.23381 16.2857 10.2917C16.2857 14.526 12.3771 20.8627 9.5 24.8176C6.67714 20.8921 2.71429 14.4818 2.71429 10.2917Z"
            fill="#ACBD33"
          />
          <path
            id="Vector_2"
            d="M9.50028 13.9673C11.3741 13.9673 12.8931 12.3217 12.8931 10.2917C12.8931 8.26171 11.3741 6.61609 9.50028 6.61609C7.62646 6.61609 6.10742 8.26171 6.10742 10.2917C6.10742 12.3217 7.62646 13.9673 9.50028 13.9673Z"
            fill="#ACBD33"
          />
        </g>
      </svg>